{"asset":{"version":"2.0","generator":"Blockbench 4.8.3 glTF exporter"},"scenes":[{"nodes":[6],"name":"blockbench_export"}],"scene":0,"nodes":[{"rotation":[-0.13052619222005157,0,0,0.9914448613738104],"translation":[0,-0.0625,0],"name":"Body","mesh":0},{"translation":[0,1.125,0],"name":"Body","children":[0]},{"translation":[0,-1.125,0],"name":"Head","mesh":1},{"translation":[0,-1.125,0],"name":"Head","mesh":2},{"translation":[0,-1.125,0],"name":"Head","mesh":3},{"translation":[0,1.125,0],"name":"Head","children":[2,3,4]},{"children":[1,5]}],"bufferViews":[{"buffer":0,"byteOffset":0,"byteLength":288,"target":34962,"byteStride":12},{"buffer":0,"byteOffset":288,"byteLength":288,"target":34962,"byteStride":12},{"buffer":0,"byteOffset":576,"byteLength":192,"target":34962,"byteStride":8},{"buffer":0,"byteOffset":768,"byteLength":72,"target":34963},{"buffer":0,"byteOffset":840,"byteLength":288,"target":34962,"byteStride":12},{"buffer":0,"byteOffset":1128,"byteLength":288,"target":34962,"byteStride":12},{"buffer":0,"byteOffset":1416,"byteLength":192,"target":34962,"byteStride":8},{"buffer":0,"byteOffset":1608,"byteLength":72,"target":34963},{"buffer":0,"byteOffset":1680,"byteLength":288,"target":34962,"byteStride":12},{"buffer":0,"byteOffset":1968,"byteLength":288,"target":34962,"byteStride":12},{"buffer":0,"byteOffset":2256,"byteLength":192,"target":34962,"byteStride":8},{"buffer":0,"byteOffset":2448,"byteLength":72,"target":34963},{"buffer":0,"byteOffset":2520,"byteLength":288,"target":34962,"byteStride":12},{"buffer":0,"byteOffset":2808,"byteLength":288,"target":34962,"byteStride":12},{"buffer":0,"byteOffset":3096,"byteLength":192,"target":34962,"byteStride":8},{"buffer":0,"byteOffset":3288,"byteLength":72,"target":34963},{"buffer":0,"byteOffset":3360,"byteLength":16},{"buffer":0,"byteOffset":3376,"byteLength":64},{"buffer":0,"byteOffset":3440,"byteLength":24},{"buffer":0,"byteOffset":3464,"byteLength":72},{"buffer":0,"byteOffset":3536,"byteLength":24},{"buffer":0,"byteOffset":3560,"byteLength":72},{"buffer":0,"byteOffset":3632,"byteLength":16},{"buffer":0,"byteOffset":3648,"byteLength":64},{"buffer":0,"byteOffset":3712,"byteLength":20},{"buffer":0,"byteOffset":3732,"byteLength":60},{"buffer":0,"byteOffset":3792,"byteLength":16},{"buffer":0,"byteOffset":3808,"byteLength":64},{"buffer":0,"byteOffset":3872,"byteLength":16},{"buffer":0,"byteOffset":3888,"byteLength":48}],"buffers":[{"byteLength":3936,"uri":"data:application/octet-stream;base64,"}],"accessors":[{"bufferView":0,"componentType":5126,"count":24,"max":[0.25,0.0625,0.125],"min":[-0.25,-0.75,-0.125],"type":"VEC3"},{"bufferView":1,"componentType":5126,"count":24,"max":[1,1,1],"min":[-1,-1,-1],"type":"VEC3"},{"bufferView":2,"componentType":5126,"count":24,"max":[0.999755859375,0.265380859375],"min":[0.625244140625,0.000244140625],"type":"VEC2"},{"bufferView":3,"componentType":5123,"count":36,"max":[23],"min":[0],"type":"SCALAR"},{"bufferView":4,"componentType":5126,"count":24,"max":[0.25,1.625,0.25],"min":[-0.25,1.125,-0.25],"type":"VEC3"},{"bufferView":5,"componentType":5126,"count":24,"max":[1,1,1],"min":[-1,-1,-1],"type":"VEC3"},{"bufferView":6,"componentType":5126,"count":24,"max":[0.499755859375,0.249755859375],"min":[0.000244140625,0.000244140625],"type":"VEC2"},{"bufferView":7,"componentType":5123,"count":36,"max":[23],"min":[0],"type":"SCALAR"},{"bufferView":8,"componentType":5126,"count":24,"max":[0.21875,1.5625,0.21875],"min":[-0.21875,1.3125,-0.03125],"type":"VEC3"},{"bufferView":9,"componentType":5126,"count":24,"max":[1,1,1],"min":[-1,-1,-1],"type":"VEC3"},{"bufferView":10,"componentType":5126,"count":24,"max":[0.999755859375,0.984130859375],"min":[0.656494140625,0.859619140625],"type":"VEC2"},{"bufferView":11,"componentType":5123,"count":36,"max":[23],"min":[0],"type":"SCALAR"},{"bufferView":12,"componentType":5126,"count":24,"max":[0.24375000596046448,1.618749976158142,-0.125],"min":[-0.24375000596046448,1.131250023841858,-0.1875],"type":"VEC3"},{"bufferView":13,"componentType":5126,"count":24,"max":[1,1,1],"min":[-1,-1,-1],"type":"VEC3"},{"bufferView":14,"componentType":5126,"count":24,"max":[0.999755859375,0.999755859375],"min":[0.750244140625,0.875244140625],"type":"VEC2"},{"bufferView":15,"componentType":5123,"count":36,"max":[23],"min":[0],"type":"SCALAR"},{"bufferView":16,"componentType":5126,"count":4,"max":[4],"min":[0],"type":"SCALAR"},{"bufferView":17,"componentType":5126,"count":4,"max":[0,0,0,1],"min":[-0.13052618503570557,0,0,0.9914448857307434],"type":"VEC4"},{"bufferView":18,"componentType":5126,"count":6,"max":[4.5],"min":[0],"type":"SCALAR"},{"bufferView":19,"componentType":5126,"count":6,"max":[0,1.25,0],"min":[0,1,0],"type":"VEC3"},{"bufferView":20,"componentType":5126,"count":6,"max":[4.5],"min":[0],"type":"SCALAR"},{"bufferView":21,"componentType":5126,"count":6,"max":[0,1.25,0],"min":[0,1,0],"type":"VEC3"},{"bufferView":22,"componentType":5126,"count":4,"max":[4],"min":[0],"type":"SCALAR"},{"bufferView":23,"componentType":5126,"count":4,"max":[0,0,0,1],"min":[-0.237685889005661,0,0,0.9713420867919922],"type":"VEC4"},{"bufferView":24,"componentType":5126,"count":5,"max":[4],"min":[0],"type":"SCALAR"},{"bufferView":25,"componentType":5126,"count":5,"max":[0,1.1875,0],"min":[0,1.0625,0],"type":"VEC3"},{"bufferView":26,"componentType":5126,"count":4,"max":[4],"min":[0],"type":"SCALAR"},{"bufferView":27,"componentType":5126,"count":4,"max":[0,0,0,1],"min":[-0.10886687785387039,0,0,0.9940563440322876],"type":"VEC4"},{"bufferView":28,"componentType":5126,"count":4,"max":[4],"min":[1],"type":"SCALAR"},{"bufferView":29,"componentType":5126,"count":4,"max":[0,1.1875,0],"min":[0,1.0625,0],"type":"VEC3"}],"materials":[{"pbrMetallicRoughness":{"metallicFactor":0,"roughnessFactor":1,"baseColorTexture":{"index":0}},"alphaMode":"MASK","alphaCutoff":0.05,"doubleSided":true}],"textures":[{"sampler":0,"source":0,"name":"creeper"}],"samplers":[{"magFilter":9728,"minFilter":9728,"wrapS":33071,"wrapT":33071}],"images":[{"mimeType":"image/png","uri":"data:image/png;base64,"}],"meshes":[{"primitives":[{"mode":4,"attributes":{"POSITION":0,"NORMAL":1,"TEXCOORD_0":2},"indices":3,"material":0}]},{"primitives":[{"mode":4,"attributes":{"POSITION":4,"NORMAL":5,"TEXCOORD_0":6},"indices":7,"material":0}]},{"primitives":[{"mode":4,"attributes":{"POSITION":8,"NORMAL":9,"TEXCOORD_0":10},"indices":11,"material":0}]},{"primitives":[{"mode":4,"attributes":{"POSITION":12,"NORMAL":13,"TEXCOORD_0":14},"indices":15,"material":0}]}],"animations":[{"name":"animation.model.idle","samplers":[{"input":16,"output":17,"interpolation":"LINEAR"},{"input":18,"output":19,"interpolation":"LINEAR"},{"input":20,"output":21,"interpolation":"LINEAR"}],"channels":[{"sampler":0,"target":{"node":1,"path":"rotation"}},{"sampler":1,"target":{"node":1,"path":"translation"}},{"sampler":2,"target":{"node":5,"path":"translation"}}]},{"name":"animation.model.floating","samplers":[{"input":22,"output":23,"interpolation":"LINEAR"},{"input":24,"output":25,"interpolation":"LINEAR"},{"input":26,"output":27,"interpolation":"LINEAR"},{"input":28,"output":29,"interpolation":"LINEAR"}],"channels":[{"sampler":0,"target":{"node":1,"path":"rotation"}},{"sampler":1,"target":{"node":1,"path":"translation"}},{"sampler":2,"target":{"node":5,"path":"rotation"}},{"sampler":3,"target":{"node":5,"path":"translation"}}]}]}